<svg width="600" height="426" xmlns="http://www.w3.org/2000/svg" xmlns:xlink="http://www.w3.org/1999/xlink" overflow="hidden"><defs><clipPath id="clip0"><path d="M340 147 940 147 940 573 340 573Z" fill-rule="evenodd" clip-rule="evenodd"/></clipPath></defs><g clip-path="url(#clip0)" transform="translate(-340 -147)"><path d="M565 360C565 318.579 598.579 285 640 285 681.421 285 715 318.579 715 360 715 401.421 681.421 435 640 435 598.579 435 565 401.421 565 360Z" fill="#FFFFFF" fill-rule="evenodd"/><path d="M531.194 468.806C471.367 408.978 471.065 312.072 530.52 251.873L556.171 277.207C510.647 323.301 510.878 397.502 556.688 443.312Z" fill="#FFFFFF" fill-rule="evenodd"/><path d="M477.391 522.609C387.741 432.959 387.562 287.662 476.991 197.792L503.924 224.592C429.27 299.614 429.419 420.904 504.258 495.742Z" fill="#FFFFFF" fill-rule="evenodd"/><path d="M428.125 571.875C311.133 454.883 311.106 265.209 428.066 148.185L454.413 174.517C351.995 276.994 352.018 443.087 454.465 545.534Z" fill="#FFFFFF" fill-rule="evenodd"/><path d="M748.806 251.195C808.633 311.022 808.935 407.928 749.48 468.127L723.829 442.793C769.353 396.699 769.122 322.498 723.313 276.688Z" fill="#FFFFFF" fill-rule="evenodd"/><path d="M802.609 197.391C892.259 287.042 892.438 432.338 803.009 522.208L776.076 495.408C850.73 420.386 850.581 299.096 775.743 224.258Z" fill="#FFFFFF" fill-rule="evenodd"/><path d="M851.875 148.125C968.867 265.117 968.894 454.791 851.935 571.816L825.587 545.483C928.006 443.007 927.982 276.913 825.535 174.466Z" fill="#FFFFFF" fill-rule="evenodd"/></g></svg>