<svg width="604" height="604" xmlns="http://www.w3.org/2000/svg" xmlns:xlink="http://www.w3.org/1999/xlink" overflow="hidden"><defs><clipPath id="clip0"><path d="M338 58 942 58 942 662 338 662Z" fill-rule="evenodd" clip-rule="evenodd"/></clipPath></defs><g clip-path="url(#clip0)" transform="translate(-338 -58)"><path d="M539 59 539 108.584 386.848 108.584 386.848 259 339 259 339 59Z" fill="#FFFFFF" fill-rule="evenodd"/><path d="M941 259 891.416 259 891.416 106.848 741 106.848 741 59 941 59Z" fill="#FFFFFF" fill-rule="evenodd"/><path d="M339 461 388.584 461 388.584 613.152 539 613.152 539 661 339 661Z" fill="#FFFFFF" fill-rule="evenodd"/><path d="M741 661 741 611.416 893.152 611.416 893.152 461 941 461 941 661Z" fill="#FFFFFF" fill-rule="evenodd"/></g></svg>