<!--?xml version="1.0" encoding="utf-8"?-->
<!-- Generator: Adobe Illustrator 15.1.0, SVG Export Plug-In . SVG Version: 6.00 Build 0)  -->

<svg version="1.1" id="_x32_" xmlns="http://www.w3.org/2000/svg" xmlns:xlink="http://www.w3.org/1999/xlink" x="0px" y="0px" width="512px" height="512px" viewBox="0 0 512 512" style="width: 256px; height: 256px; opacity: 1;" xml:space="preserve">
<style type="text/css">

	.st0{fill:#4B4B4B;}

</style>
<g>
	<path class="st0" d="M444.656,74.539c-7.031-6.719-20.922-12.25-30.844-12.25h-69.391c-9.953,0-23.234,6.063-29.531,13.406
		l-47.453,55.625c-6.313,7.375-16.594,7.375-22.891,0l-47.453-55.625c-6.297-7.344-19.594-13.406-29.516-13.406H98.188
		c-9.953,0-23.828,5.531-30.859,12.25l-54.563,52.313C5.75,133.602,0,146.883,0,156.414v105.844c0,9.531,6.578,21.875,14.672,27.406
		l226.641,155.875c8.063,5.563,21.281,5.563,29.359,0l226.641-155.875c8.063-5.531,14.688-17.875,14.688-27.406V156.414
		c0-9.531-5.75-22.813-12.781-29.563L444.656,74.539z" style="fill: rgb(255, 255, 255);"></path>
</g>
</svg>
