<svg width="610" height="610" xmlns="http://www.w3.org/2000/svg" xmlns:xlink="http://www.w3.org/1999/xlink" overflow="hidden"><defs><clipPath id="clip0"><rect x="335" y="55" width="610" height="610"/></clipPath></defs><g clip-path="url(#clip0)" transform="translate(-335 -55)"><path d="M400 120 880 120 880 600 400 600ZM441.851 161.851 441.851 558.149 838.149 558.149 838.149 161.851Z" fill="#FFFFFF" fill-rule="evenodd"/><rect x="619" y="120" width="42" height="480" fill="#FFFFFF"/><rect x="700" y="200" width="99" height="43" fill="#FFFFFF"/><rect x="700" y="270" width="99" height="42" fill="#FFFFFF"/><rect x="700" y="339" width="99" height="42" fill="#FFFFFF"/><path d="M0 607.999 542.141 0 608 0 65.8594 607.999Z" fill="#FFFFFF" fill-rule="evenodd" transform="matrix(-1 -8.74228e-08 -8.74228e-08 1 944 56)"/><rect x="411" y="464" width="240" height="105" fill="#FFFFFF"/></g></svg>