<svg width="604" height="604" xmlns="http://www.w3.org/2000/svg" xmlns:xlink="http://www.w3.org/1999/xlink" overflow="hidden"><defs><clipPath id="clip0"><path d="M338 58 942 58 942 662 338 662Z" fill-rule="evenodd" clip-rule="evenodd"/></clipPath></defs><g clip-path="url(#clip0)" transform="translate(-338 -58)"><path d="M741 59 941 59 941 661 741 661ZM774.692 92.692 774.692 627.308 907.308 627.308 907.308 92.692Z" fill="#FFFFFF" fill-rule="evenodd"/><rect x="741" y="461" width="200" height="200" fill="#FFFFFF"/><path d="M671 156.978 477.423 156.978 477.423 276.464 549.866 276.464 444.433 431 339 276.464 411.444 276.464 411.444 91 671 91Z" fill="#FFFFFF" fill-rule="evenodd"/><path d="M339 661 339 461 941 461 941 661ZM372.692 627.308 907.308 627.308 907.308 494.692 372.692 494.692Z" fill="#FFFFFF" fill-rule="evenodd"/></g></svg>