<?xml version="1.0" standalone="no"?>
<!DOCTYPE svg PUBLIC "-//W3C//DTD SVG 20010904//EN"
 "http://www.w3.org/TR/2001/REC-SVG-20010904/DTD/svg10.dtd">
<svg version="1.0" xmlns="http://www.w3.org/2000/svg"
 width="1024.000000pt" height="1024.000000pt" viewBox="0 0 1024.000000 1024.000000"
 preserveAspectRatio="xMidYMid meet">
<metadata>
Created by potrace 1.11, written by Peter Selinger 2001-2013
</metadata>
<g transform="translate(0.000000,1024.000000) scale(0.100000,-0.100000)"
fill="#000000" stroke="none">
<path d="M8097 9340 c-95 -24 -178 -96 -223 -194 -23 -52 -26 -67 -22 -140 4
-61 11 -93 30 -131 101 -196 360 -237 518 -83 127 122 127 331 0 458 -76 76
-205 114 -303 90z"/>
<path d="M1222 8758 l3 -523 24 -59 c48 -119 137 -180 266 -180 129 0 219 61
266 180 21 54 23 77 27 282 l4 222 294 0 294 0 0 -1165 0 -1165 -242 0 c-330
0 -413 -19 -492 -112 -112 -130 -74 -351 74 -432 97 -53 153 -56 955 -56 903
0 920 2 1022 113 120 130 83 360 -71 439 -74 38 -157 48 -413 48 l-243 0 0
1165 0 1165 280 0 280 0 0 -272 c0 -365 15 -446 97 -530 65 -67 115 -81 305
-86 l167 -5 100 -411 c56 -226 168 -683 249 -1016 l148 -605 277 -3 276 -2 14
27 c7 16 101 261 208 546 106 284 196 517 199 517 3 0 95 -228 205 -507 110
-279 208 -524 217 -545 l17 -38 271 0 270 0 8 23 c5 12 116 473 247 1025 l239
1002 408 0 408 0 0 -725 0 -725 -232 0 c-363 0 -444 -27 -520 -174 -17 -31
-22 -59 -22 -116 -1 -95 16 -142 71 -201 51 -55 114 -83 220 -98 98 -15 1454
-15 1560 0 196 27 293 125 293 298 -1 107 -53 196 -145 244 -73 37 -147 46
-392 47 l-233 0 0 1020 0 1020 -1080 0 c-761 0 -1095 -3 -1132 -11 -150 -32
-240 -134 -242 -274 -1 -98 20 -152 84 -217 67 -66 96 -77 238 -85 56 -3 102
-9 102 -12 0 -17 -225 -921 -230 -921 -3 0 -87 213 -186 473 l-181 472 -266 3
-265 2 -39 -102 c-22 -57 -105 -273 -183 -480 -79 -208 -145 -376 -147 -375
-3 4 -223 917 -223 928 0 3 42 9 93 12 50 3 112 12 137 21 56 21 113 75 148
141 23 42 27 62 26 130 0 66 -5 89 -26 130 -44 84 -110 131 -216 154 -33 7
-181 11 -397 11 l-345 0 -2 443 -3 442 -1463 3 -1463 2 3 -522z"/>
<path d="M2038 5445 c-87 -20 -144 -45 -220 -96 -93 -64 -180 -159 -226 -247
-78 -151 -75 -125 -82 -717 -5 -487 -6 -533 -23 -563 -22 -40 -59 -57 -153
-72 -165 -26 -236 -107 -235 -266 0 -71 20 -126 59 -167 39 -41 86 -62 181
-82 107 -22 129 -32 149 -69 15 -28 18 -93 23 -586 6 -615 5 -601 74 -728 104
-189 253 -308 446 -356 123 -30 212 -19 295 37 150 100 135 344 -26 427 -19
10 -72 25 -117 33 -45 9 -93 23 -107 32 -53 35 -55 55 -60 630 -3 352 -8 548
-16 584 -14 64 -48 137 -98 205 -24 33 -32 52 -26 61 90 120 119 190 134 322
5 48 10 292 10 542 0 441 1 456 21 498 25 52 39 60 134 78 41 8 92 22 112 30
124 52 180 216 118 342 -59 118 -197 166 -367 128z"/>
<path d="M7931 5449 c-190 -58 -250 -290 -110 -427 43 -42 84 -60 176 -78 89
-17 116 -31 140 -77 16 -29 18 -80 23 -567 5 -527 6 -536 28 -600 13 -36 46
-98 73 -138 l50 -74 -31 -34 c-47 -54 -91 -151 -106 -234 -10 -56 -13 -202
-14 -575 0 -312 -4 -514 -10 -537 -18 -63 -53 -95 -118 -108 -163 -32 -233
-76 -269 -168 -24 -64 -22 -155 5 -208 52 -101 152 -151 287 -141 216 15 419
151 533 357 66 120 65 109 72 720 5 486 7 560 22 592 22 50 53 67 149 84 98
17 163 47 197 91 78 103 68 268 -21 350 -47 43 -68 52 -190 78 -110 23 -135
48 -147 140 -5 39 -9 279 -10 535 0 529 -1 535 -81 676 -56 99 -181 227 -264
271 -121 63 -302 97 -384 72z"/>
<path d="M5630 5243 c-95 -14 -161 -45 -212 -99 -43 -46 -62 -101 -61 -179 0
-118 63 -210 172 -252 39 -14 92 -18 349 -21 l302 -3 0 -1208 0 -1209 -242 -5
c-270 -6 -317 -14 -390 -71 -132 -100 -132 -322 0 -423 23 -17 67 -40 99 -50
54 -17 109 -18 808 -18 l750 0 73 23 c57 18 83 33 116 66 115 114 97 328 -34
411 -78 49 -128 57 -382 62 l-238 5 0 1489 0 1489 -542 -1 c-299 -1 -554 -3
-568 -6z"/>
<path d="M3655 4164 c-103 -16 -250 -50 -310 -71 -287 -104 -551 -328 -703
-598 -200 -356 -214 -839 -36 -1223 77 -168 242 -369 402 -489 151 -113 364
-204 562 -239 120 -21 361 -21 479 0 164 30 369 107 491 186 26 17 50 30 53
30 10 0 8 -234 -3 -329 -23 -201 -151 -352 -346 -407 -50 -15 -128 -18 -504
-24 -424 -5 -448 -7 -498 -27 -75 -30 -113 -63 -146 -124 -42 -75 -42 -170 -2
-252 31 -64 70 -98 148 -130 51 -21 70 -22 458 -25 425 -4 531 3 675 39 195
50 406 184 553 353 101 116 164 245 205 421 20 88 21 118 24 1181 l4 1091 117
5 c181 8 267 50 318 153 32 67 36 166 9 231 -24 57 -91 121 -155 146 -53 22
-69 23 -452 26 l-398 3 0 -80 c0 -45 -3 -81 -7 -81 -5 0 -28 14 -53 31 -114
77 -261 138 -420 175 -82 19 -141 26 -270 29 -91 2 -178 1 -195 -1z m313 -570
c162 -33 270 -93 398 -219 148 -147 212 -288 221 -491 7 -137 -12 -234 -68
-351 -92 -193 -268 -347 -469 -411 -77 -24 -99 -27 -235 -27 -143 0 -154 2
-243 33 -247 86 -435 284 -504 529 -31 111 -30 277 1 390 64 228 257 437 478
514 139 49 287 61 421 33z"/>
</g>
</svg>
